<?xml version="1.0" standalone="no"?>
<!DOCTYPE svg PUBLIC "-//W3C//DTD SVG 20010904//EN"
 "http://www.w3.org/TR/2001/REC-SVG-20010904/DTD/svg10.dtd">
<svg version="1.0" xmlns="http://www.w3.org/2000/svg"
 width="96.000000pt" height="96.000000pt" viewBox="0 0 96.000000 96.000000"
 preserveAspectRatio="xMidYMid meet">

<g transform="translate(0.000000,96.000000) scale(0.100000,-0.100000)"
fill="#000000" stroke="none">
<path d="M829 947 c19 -7 38 -22 42 -33 6 -15 8 -15 8 -3 1 22 -17 36 -54 43
-28 6 -28 5 4 -7z"/>
<path d="M845 880 c-3 -6 1 -7 9 -4 18 7 21 14 7 14 -6 0 -13 -4 -16 -10z"/>
<path d="M820 864 c0 -15 14 -30 35 -38 17 -6 18 -5 5 6 -8 7 -21 19 -27 27
-7 8 -13 11 -13 5z"/>
<path d="M436 813 c-64 -16 -133 -92 -166 -181 -17 -45 -21 -76 -19 -147 1
-51 -3 -102 -9 -118 -19 -46 -13 -65 7 -22 l19 40 -6 -65 c-3 -36 -10 -81 -17
-100 l-12 -35 -1 49 c-1 27 -4 51 -8 55 -3 3 -4 -21 -1 -54 3 -33 6 -99 6
-147 0 -66 3 -88 13 -88 10 0 13 21 12 82 0 93 20 254 28 223 13 -46 7 65 -7
130 -19 91 -19 111 5 179 42 124 108 178 230 191 74 7 129 -10 187 -59 66 -56
98 -191 73 -311 -20 -91 -24 -176 -10 -185 10 -6 9 -25 -2 -86 l-14 -79 -27
82 c-16 50 -26 101 -26 130 1 29 4 37 6 21 6 -40 23 -34 23 8 0 19 5 44 11 56
13 24 20 238 8 238 -5 0 -9 -16 -9 -36 l0 -36 -34 30 c-64 56 -277 116 -269
75 2 -6 9 -94 17 -195 15 -178 33 -273 62 -331 8 -15 19 -25 24 -22 5 3 12
-20 15 -50 4 -30 11 -55 16 -55 13 0 11 26 -6 95 -8 33 -14 63 -15 66 0 4 21
7 46 7 25 1 59 8 75 16 29 14 30 14 40 -12 6 -15 19 -57 28 -94 10 -37 20 -70
23 -73 3 -3 9 33 13 80 4 48 9 84 12 81 7 -7 5 -124 -2 -147 -5 -14 -1 -19 14
-19 20 0 20 4 15 78 -3 42 -12 109 -20 147 -37 186 3 81 57 -150 l19 -80 -5
67 c-3 37 -19 111 -37 165 -28 91 -30 107 -29 235 2 158 -16 228 -71 286 -54
56 -96 72 -185 71 -43 -1 -87 -4 -97 -6z m156 -195 c100 -39 124 -65 131 -143
4 -38 1 -68 -6 -82 -21 -38 -87 -83 -121 -83 -36 1 -114 15 -122 22 -2 3 -9
67 -14 143 -6 75 -13 148 -16 162 -6 24 -5 24 32 17 22 -3 74 -20 116 -36z
m-92 -329 c0 -6 -4 -7 -10 -4 -5 3 -10 11 -10 16 0 6 5 7 10 4 6 -3 10 -11 10
-16z m163 -7 c10 -9 17 -29 17 -49 0 -40 -24 -53 -101 -53 -44 0 -51 3 -59 26
-6 14 -10 40 -10 59 l0 34 68 -1 c45 -1 73 -6 85 -16z m-135 -152 c0 -17 -22
32 -32 70 -3 14 3 7 13 -15 11 -22 19 -47 19 -55z m-281 -32 c-3 -7 -5 -2 -5
12 0 14 2 19 5 13 2 -7 2 -19 0 -25z"/>
<path d="M672 526 c1 -10 8 -17 13 -17 15 1 12 24 -3 29 -9 3 -13 -2 -10 -12z"/>
<path d="M484 499 c-10 -17 13 -36 27 -22 12 12 4 33 -11 33 -5 0 -12 -5 -16
-11z"/>
<path d="M610 359 c0 -5 5 -7 10 -4 6 3 10 8 10 11 0 2 -4 4 -10 4 -5 0 -10
-5 -10 -11z"/>
<path d="M63 770 c-12 -5 -26 -17 -31 -27 -10 -19 -10 -59 1 -69 3 -3 4 7 2
22 -7 59 50 92 91 53 28 -26 32 -19 7 11 -19 21 -35 24 -70 10z"/>
<path d="M820 766 c0 -8 -6 -17 -12 -19 -10 -4 -10 -6 -1 -6 7 -1 17 8 23 19
7 14 7 20 0 20 -5 0 -10 -6 -10 -14z"/>
<path d="M121 700 c-13 -11 -19 -20 -14 -20 6 0 18 9 28 20 23 25 17 25 -14 0z"/>
<path d="M680 712 c0 -5 7 -15 15 -22 8 -7 15 -8 15 -2 0 5 -7 15 -15 22 -8 7
-15 8 -15 2z"/>
<path d="M113 653 c9 -2 17 -9 17 -14 0 -5 8 -9 17 -9 13 0 14 -3 6 -11 -9 -9
-6 -17 10 -31 l22 -19 -35 7 c-42 8 -38 1 8 -14 19 -6 30 -7 27 -2 -4 6 0 10
7 10 7 0 2 7 -10 16 -13 9 -21 22 -18 29 5 14 -35 46 -56 44 -7 -1 -5 -3 5 -6z"/>
<path d="M341 485 c-1 -59 -4 -76 -12 -65 -8 12 -9 11 -5 -5 10 -40 17 -133
20 -255 2 -70 8 -135 14 -145 15 -26 15 -10 1 76 -7 38 -10 72 -7 74 3 3 20
-8 38 -25 18 -16 38 -30 45 -30 20 0 55 -54 55 -84 0 -19 5 -26 20 -26 11 0
20 3 20 6 0 15 -104 173 -111 168 -4 -2 -13 4 -18 15 -16 29 -13 39 4 17 19
-26 19 -21 -5 42 -11 29 -20 64 -20 78 0 36 -15 22 -18 -17 -1 -18 -5 -35 -8
-38 -3 -3 -2 44 1 104 4 63 2 127 -3 150 -9 37 -10 34 -11 -40z m76 -332 c22
-19 24 -23 9 -21 -26 4 -55 45 -61 88 l-6 35 15 -39 c8 -22 27 -50 43 -63z"/>
<path d="M176 407 c-11 -8 -16 -21 -13 -33 4 -17 5 -17 6 2 1 23 26 38 43 27
7 -3 8 -1 4 5 -9 15 -18 15 -40 -1z"/>
<path d="M845 375 c-16 -8 -24 -14 -17 -15 7 0 22 5 33 11 16 8 25 7 40 -7 22
-20 17 -34 -14 -35 -18 -1 -18 -2 -4 -6 10 -3 24 1 32 7 12 10 12 15 -3 36
-19 27 -26 28 -67 9z"/>
<path d="M276 233 c-10 -39 -16 -88 -7 -68 8 19 9 19 13 -5 3 -14 6 1 7 33 1
57 -3 72 -13 40z"/>
<path d="M273 60 c0 -36 2 -50 4 -32 2 17 2 47 0 65 -2 17 -4 3 -4 -33z"/>
<path d="M651 14 c0 -11 3 -14 6 -6 3 7 2 16 -1 19 -3 4 -6 -2 -5 -13z"/>
</g>
</svg>
